<svg width="1096" height="76" viewBox="0 0 1096 76" fill="none" xmlns="http://www.w3.org/2000/svg">
<g clip-path="url(#clip0_205_16544)">
<rect width="1096" height="76" rx="8" fill="url(#paint0_linear_205_16544)"/>
<g clip-path="url(#clip1_205_16544)">
<path d="M1102.94 54.0879V54.3782C1102.88 54.6302 1102.69 54.848 1102.36 55.0401C1101.95 55.2706 1101.48 55.3816 1100.94 55.3816C1100.39 55.3816 1099.92 55.2663 1099.52 55.0358L1098.09 54.2245L1096.68 55.0315C1096.43 55.1681 1096.16 55.2663 1095.87 55.3218C1095.84 55.3261 1095.82 55.3261 1095.8 55.3304C1095.63 55.3603 1095.45 55.3731 1095.26 55.3731C1094.72 55.3731 1094.24 55.2578 1093.84 55.0272C1093.44 54.7967 1093.24 54.5277 1093.23 54.216C1093.23 54.0196 1093.31 53.8403 1093.47 53.6781C1093.57 53.5841 1093.69 53.4944 1093.83 53.409L1095.25 52.6021L1093.83 51.7908C1093.42 51.5603 1093.22 51.2913 1093.22 50.9796C1093.22 50.6722 1093.41 50.4032 1093.82 50.1726C1094.21 49.9463 1094.69 49.8311 1095.23 49.8311C1095.44 49.8311 1095.65 49.8481 1095.84 49.8823C1096.13 49.9378 1096.41 50.036 1096.65 50.1769L1098.08 50.9882L1099.49 50.1812C1099.89 49.9549 1100.36 49.8396 1100.91 49.8396C1101.45 49.8439 1101.92 49.9591 1102.33 50.1897C1102.73 50.416 1102.94 50.6893 1102.94 50.9967C1102.94 51.3041 1102.74 51.5773 1102.34 51.8036L1100.92 52.6106L1102.35 53.4218C1102.69 53.614 1102.88 53.836 1102.94 54.0879Z" fill="#4C88E6" stroke="#432EC5"/>
<path d="M1095.83 58.0371V58.0201C1095.75 57.8109 1095.57 57.6229 1095.27 57.4564L1094.22 56.8544L1093.23 56.2908L1093.22 56.2823L1089.58 54.2073C1088.8 53.7632 1088.41 53.221 1088.4 52.5891C1088.4 52.0724 1088.66 51.6198 1089.18 51.227C1089.29 51.1374 1089.42 51.0562 1089.56 50.9751L1095.22 47.7473C1095.62 47.5252 1095.82 47.2562 1095.82 46.9488V46.9402C1095.82 46.6328 1095.62 46.3596 1095.21 46.1291L1083.83 39.6392C1083.04 39.1951 1082.09 38.9688 1080.98 38.9688C1079.87 38.9645 1078.93 39.1866 1078.15 39.6306L1058.35 50.9196C1057.57 51.3637 1057.18 51.9016 1057.18 52.5335C1057.19 53.1655 1057.58 53.7077 1058.37 54.1517L1063.01 56.7989L1068.7 60.0438L1071.55 61.6663L1074.39 63.2888L1077.24 64.9156L1078.29 65.5133C1078.98 65.9018 1079.79 66.1238 1080.72 66.1751H1080.73C1080.86 66.1751 1080.99 66.1837 1081.13 66.1837C1082.24 66.1879 1083.19 65.9659 1083.97 65.5219L1084.92 64.9796L1089.23 62.5202L1093.23 60.2403L1093.5 60.0908L1095.28 59.0704C1095.57 58.9082 1095.76 58.7203 1095.84 58.5111C1095.85 58.4812 1095.86 58.4556 1095.86 58.4257C1095.88 58.3744 1095.88 58.3189 1095.88 58.2634C1095.88 58.178 1095.87 58.114 1095.83 58.0371ZM1071.13 53.3661C1070.73 53.5967 1070.26 53.7077 1069.71 53.7077C1069.34 53.7077 1069.02 53.6565 1068.71 53.5497C1068.57 53.5028 1068.43 53.4387 1068.29 53.3619C1067.89 53.1313 1067.69 52.8623 1067.68 52.5506C1067.68 52.2432 1067.88 51.9742 1068.29 51.7436L1075.36 47.7131C1075.76 47.4825 1076.23 47.3715 1076.77 47.3715C1077.32 47.3715 1077.79 47.4868 1078.19 47.7174C1078.34 47.7985 1078.45 47.8838 1078.54 47.9735C1078.72 48.14 1078.8 48.3237 1078.8 48.5286C1078.8 48.8403 1078.6 49.1092 1078.2 49.3355L1071.13 53.3661ZM1085.35 58.2464L1082.52 59.8603C1082.11 60.0866 1081.64 60.2018 1081.1 60.1975C1080.74 60.1975 1080.4 60.1463 1080.1 60.0396C1079.95 59.9883 1079.81 59.9286 1079.68 59.8517C1079.28 59.6254 1079.07 59.3522 1079.07 59.0448C1079.07 58.7331 1079.27 58.4641 1079.67 58.2378L1082.5 56.6238C1082.9 56.3933 1083.37 56.2823 1083.92 56.2823C1084.46 56.2823 1084.93 56.3975 1085.34 56.6281C1085.48 56.7135 1085.6 56.8032 1085.7 56.8971C1085.86 57.0594 1085.94 57.243 1085.95 57.4394C1085.95 57.7468 1085.75 58.0158 1085.35 58.2464ZM1088.14 50.1638L1087.72 50.3987L1077.77 56.0688L1076.83 56.6111C1076.42 56.8416 1075.95 56.9569 1075.41 56.9526C1075.04 56.9526 1074.71 56.9014 1074.4 56.7947C1074.26 56.7434 1074.12 56.6837 1073.99 56.6068C1073.58 56.3762 1073.38 56.1072 1073.38 55.7998C1073.38 55.4881 1073.58 55.2192 1073.98 54.9886L1084.88 48.7762L1085.29 48.5414C1085.7 48.3108 1086.17 48.1956 1086.71 48.1998C1087.25 48.1998 1087.73 48.3151 1088.13 48.5457C1088.53 48.7762 1088.74 49.0452 1088.74 49.3526C1088.74 49.6643 1088.54 49.9333 1088.14 50.1638Z" fill="#71AEFF" stroke="#432EC5"/>
<path d="M1085.95 57.4403C1085.95 57.7477 1085.75 58.0167 1085.35 58.2473L1082.52 59.8612C1082.11 60.0875 1081.64 60.2028 1081.1 60.1985C1080.74 60.1985 1080.4 60.1472 1080.1 60.0405C1079.95 59.9893 1079.81 59.9295 1079.68 59.8526C1079.28 59.6263 1079.07 59.3531 1079.07 59.0457C1079.07 58.734 1079.27 58.465 1079.67 58.2387L1082.5 56.6248C1082.9 56.3942 1083.37 56.2832 1083.92 56.2832C1084.46 56.2832 1084.93 56.3985 1085.34 56.629C1085.48 56.7144 1085.6 56.8041 1085.7 56.898C1085.86 57.0603 1085.94 57.2439 1085.95 57.4403Z" fill="#4C88E6" stroke="#432EC5"/>
<path d="M1078.8 48.5292C1078.8 48.8409 1078.6 49.1098 1078.2 49.3361L1071.13 53.3667C1070.73 53.5972 1070.26 53.7083 1069.71 53.7083C1069.35 53.7083 1069.02 53.6571 1068.71 53.5503C1068.57 53.5033 1068.43 53.4393 1068.29 53.3625C1067.89 53.1319 1067.69 52.8629 1067.68 52.5512C1067.68 52.2438 1067.88 51.9748 1068.29 51.7442L1075.36 47.7136C1075.76 47.4831 1076.23 47.3721 1076.77 47.3721C1077.32 47.3721 1077.79 47.4874 1078.19 47.7179C1078.34 47.799 1078.45 47.8844 1078.54 47.9741C1078.72 48.1406 1078.8 48.3242 1078.8 48.5292Z" fill="#4C88E6" stroke="#432EC5"/>
<path d="M1088.74 49.3531C1088.74 49.6648 1088.54 49.9338 1088.14 50.1643L1087.72 50.3992L1077.77 56.0693L1076.83 56.6115C1076.42 56.8421 1075.95 56.9574 1075.41 56.9531C1075.04 56.9531 1074.71 56.9019 1074.4 56.7951C1074.26 56.7439 1074.12 56.6841 1073.99 56.6073C1073.58 56.3767 1073.38 56.1077 1073.38 55.8003C1073.38 55.4886 1073.58 55.2196 1073.98 54.9891L1084.88 48.7767L1085.29 48.5418C1085.7 48.3113 1086.17 48.196 1086.71 48.2003C1087.25 48.2003 1087.73 48.3156 1088.13 48.5462C1088.53 48.7767 1088.74 49.0457 1088.74 49.3531Z" fill="#4C88E6" stroke="#432EC5"/>
<path d="M1095.84 49.8825C1095.65 49.8483 1095.44 49.8312 1095.23 49.8312C1094.69 49.8312 1094.21 49.9465 1093.82 50.1728C1093.41 50.4034 1093.21 50.6724 1093.21 50.9798V56.2827L1089.58 54.2076C1088.8 53.7636 1088.41 53.2214 1088.4 52.5895C1088.4 52.0729 1088.66 51.6203 1089.18 51.2275C1089.29 51.1378 1089.42 51.0566 1089.56 50.9755L1095.22 47.7476C1095.61 47.5256 1095.82 47.2566 1095.82 46.9492L1095.84 49.8825Z" fill="#4C88E6" stroke="#432EC5"/>
<path d="M1095.25 52.602L1093.83 53.4089C1093.69 53.4943 1093.57 53.584 1093.47 53.678C1093.31 53.8402 1093.23 54.0195 1093.23 54.2159V56.291L1093.22 56.2824V50.9795C1093.22 51.2912 1093.42 51.5602 1093.83 51.7907L1095.25 52.602Z" fill="#71AEFF" stroke="#432EC5"/>
<path d="M1098.09 54.2243V62.7636L1096.68 63.5706C1096.43 63.7072 1096.16 63.8054 1095.87 63.8609L1095.84 58.5111C1095.85 58.4812 1095.86 58.4556 1095.86 58.4257C1095.88 58.3744 1095.88 58.3189 1095.88 58.2634C1095.88 58.178 1095.87 58.114 1095.83 58.0371V58.02C1095.75 57.8108 1095.57 57.623 1095.27 57.4565L1094.22 56.8545L1093.23 56.2908V54.2158C1093.24 54.5275 1093.44 54.7965 1093.84 55.027C1094.24 55.2576 1094.72 55.3729 1095.26 55.3729C1095.45 55.3729 1095.63 55.36 1095.8 55.3302C1095.82 55.3259 1095.84 55.3259 1095.87 55.3216C1096.16 55.2661 1096.43 55.1679 1096.68 55.0313L1098.09 54.2243Z" fill="#4C88E6" stroke="#432EC5"/>
<path d="M1095.88 66.8033C1095.88 67.115 1095.68 67.3841 1095.28 67.6104L1083.97 74.0618C1083.19 74.5058 1082.24 74.7278 1081.13 74.7236C1080.02 74.7236 1079.07 74.4973 1078.29 74.0532L1058.37 62.6917C1057.58 62.2476 1057.19 61.7054 1057.18 61.0735V52.5342C1057.19 53.1661 1057.58 53.7083 1058.37 54.1523L1063.01 56.7996L1068.7 60.0445L1071.55 61.6669L1074.39 63.2895L1077.24 64.9162L1078.29 65.5139C1078.98 65.9025 1079.79 66.1245 1080.72 66.1757H1080.73C1080.86 66.1757 1080.99 66.1843 1081.13 66.1843C1082.24 66.1885 1083.19 65.9665 1083.97 65.5225L1084.92 64.9802L1089.23 62.5209L1093.23 60.2409L1093.5 60.0914L1095.28 59.071C1095.57 58.9088 1095.76 58.7209 1095.84 58.5117L1095.87 63.8616L1095.88 66.8033Z" fill="#4C88E6" stroke="#432EC5"/>
</g>
<path opacity="0.2" d="M863.533 -6C863.533 2.83656 856.25 10 847.267 10C838.283 10 831 2.83656 831 -6" stroke="white" stroke-width="4"/>
<path opacity="0.2" d="M1100.77 10.6819C1096.72 18.5337 1087.07 21.6126 1079.22 17.5588C1071.37 13.505 1068.29 3.85358 1072.34 -3.99826" stroke="white" stroke-width="8"/>
</g>
<defs>
<linearGradient id="paint0_linear_205_16544" x1="47.6218" y1="18.7323" x2="209.231" y2="227.134" gradientUnits="userSpaceOnUse">
<stop stop-color="#065CCA"/>
<stop offset="1" stop-color="#5B40FF"/>
</linearGradient>
<clipPath id="clip0_205_16544">
<rect width="1096" height="76" rx="8" fill="white"/>
</clipPath>
<clipPath id="clip1_205_16544">
<rect width="48" height="38" fill="white" transform="translate(1056 38)"/>
</clipPath>
</defs>
</svg>
