<svg width="1102" height="241" viewBox="0 0 1102 241" fill="none" xmlns="http://www.w3.org/2000/svg">
<g clip-path="url(#clip0_269_16735)">
<rect width="1102.4" height="241.401" rx="8.04671" fill="#065CCA"/>
<rect width="1102.4" height="241.401" rx="8.04671" fill="url(#paint0_linear_269_16735)"/>
<path d="M957.065 55.0379L964.796 59.4831V50.5723L957.065 55.0379Z" fill="#6CADFF" stroke="black" stroke-width="1.00584"/>
<path d="M1095.06 -5.67846C1078.55 -15.1834 1058.8 -19.9768 1035.81 -20.0178C1012.82 -20.0588 993.137 -15.3472 976.732 -5.88326C966.56 -0.0246393 959.567 6.81728 955.732 14.6015C951.897 22.4062 951.343 30.1494 954.112 37.8517L925.238 54.5058C920.767 57.0869 918.532 60.2211 918.552 63.9083C918.573 67.5956 920.829 70.7298 925.34 73.3313C924.766 74.54 924.479 75.7485 924.438 76.9571V77.6127C924.458 78.8008 924.746 79.9684 925.279 81.1565C926.448 83.7786 928.806 86.1138 932.354 88.1623C933.297 88.7154 934.281 89.207 935.307 89.6577C938.116 90.8868 941.172 91.7472 944.514 92.2388C945.991 92.4436 947.447 92.6075 948.924 92.669C952 92.8329 955.056 92.6895 958.091 92.2183C959.034 92.7714 960.039 93.263 961.085 93.6932C964.489 95.1271 968.344 95.9056 972.671 96.0899C973.245 96.1104 973.84 96.1309 974.435 96.1309C980.813 96.1309 986.247 94.8608 990.718 92.2798L994.655 90.006L1019.61 75.6256C1032.94 77.203 1046.31 76.9367 1059.68 74.8062C1059.77 74.7858 1059.87 74.7858 1059.95 74.7653C1073.24 72.6144 1085.05 68.5584 1095.43 62.5768C1102.59 58.4389 1108.18 53.9527 1112.2 49.0979C1117.35 42.891 1119.93 36.09 1119.93 28.695V28.4902C1119.87 15.2365 1111.57 3.84698 1095.06 -5.67846ZM974.353 82.8363L964.797 77.3259L952.389 70.1767L948.924 68.1692L941.603 63.9493L948.924 59.7295L953.251 62.2286L964.797 68.8861L981.674 78.6164L974.353 82.8363ZM989.815 73.9049L964.797 59.4836L957.065 55.0384L964.797 50.5728L997.547 69.4597L989.815 73.9049ZM1058.99 40.146C1057.37 41.0883 1055.34 41.5595 1052.88 41.5595L1030.38 41.5185H1025.54L1013.26 48.5857L1003.58 54.1781L991.292 47.0903L1013.26 34.4308L1013.19 22.611V18.6575C1013.17 17.244 1013.97 16.0764 1015.61 15.1341C1017.23 14.1918 1019.26 13.7206 1021.73 13.7206C1024.17 13.7411 1026.22 14.2123 1027.86 15.1546C1029.48 16.0969 1030.32 17.2645 1030.32 18.678V21.0542L1030.38 31.6243L1052.83 31.6653C1055.28 31.6653 1057.33 32.1569 1058.97 33.0992C1060.59 34.0415 1061.41 35.2092 1061.43 36.6226C1061.43 38.0361 1060.63 39.2242 1058.99 40.146Z" fill="#044598" stroke="#001E45" stroke-width="1.00584"/>
<path d="M997.547 69.4592L989.815 73.9044L964.796 59.4831V50.5723L997.547 69.4592Z" fill="#6CADFF" stroke="#001E45" stroke-width="1.00584"/>
<path d="M1061.43 36.6228C1061.43 38.0362 1060.63 39.2244 1058.99 40.1462C1057.37 41.0885 1055.34 41.5596 1052.88 41.5596L1030.38 41.5187V31.6245L1052.83 31.6655C1055.28 31.6655 1057.33 32.1571 1058.97 33.0994C1060.59 34.0417 1061.41 35.2093 1061.43 36.6228Z" fill="#6CADFF" stroke="#001E45" stroke-width="1.00584"/>
<path d="M1030.38 31.6239V41.5181H1025.54L1013.25 48.5853V34.4303L1013.19 22.6106V18.657C1013.17 17.2436 1013.97 16.076 1015.61 15.1337C1017.23 14.1914 1019.26 13.7202 1021.72 13.7202C1024.17 13.7407 1026.22 14.2119 1027.86 15.1542C1029.48 16.0965 1030.32 17.2641 1030.32 18.6775V21.0538L1030.38 31.6239Z" fill="#6CADFF" stroke="#001E45" stroke-width="1.00584"/>
<path d="M1013.26 34.4307V48.5856L1003.58 54.178L991.292 47.0903L1013.26 34.4307Z" fill="#6CADFF" stroke="#001E45" stroke-width="1.00584"/>
<path d="M1119.93 28.6958V69.4605C1120.02 82.7142 1111.83 94.0832 1095.43 103.547C1084.99 109.57 1073.08 113.646 1059.68 115.777C1046.31 117.907 1032.94 118.173 1019.61 116.596V75.6264C1032.94 77.2038 1046.31 76.9375 1059.68 74.807C1059.77 74.7865 1059.87 74.7865 1059.95 74.7661C1073.24 72.6152 1085.05 68.5592 1095.43 62.5776C1102.59 58.4397 1108.18 53.9535 1112.2 49.0986C1117.35 42.8918 1119.93 36.0908 1119.93 28.6958Z" fill="#6CADFF" stroke="#001E45" stroke-width="1.00584"/>
<path d="M948.924 59.7295V68.1692L941.602 63.9494L948.924 59.7295Z" fill="#6CADFF" stroke="#001E45" stroke-width="1.00584"/>
<path d="M981.674 78.6165L974.352 82.8363L964.796 77.3259L952.389 70.1767L948.923 68.1692V59.7295L953.25 62.2286L964.796 68.8862L981.674 78.6165Z" fill="#6CADFF" stroke="#001E45" stroke-width="1.00584"/>
<path d="M925.34 73.3317C924.766 74.5403 924.478 75.7489 924.437 76.9575C924.417 77.1828 924.417 77.4082 924.437 77.613V113.748C920.521 111.269 918.573 108.32 918.552 104.878V63.9087C918.573 67.596 920.829 70.7301 925.34 73.3317Z" fill="#6CADFF" stroke="#001E45" stroke-width="1.00584"/>
<path d="M924.437 118.889V118.582" stroke="black" stroke-width="1.00584"/>
<path d="M924.437 76.9573V76.7319" stroke="black" stroke-width="1.00584"/>
<path d="M958.09 92.2194V133.189C953.599 133.885 949.067 133.885 944.514 133.189C939.961 132.513 935.901 131.161 932.353 129.112C928.805 127.064 926.447 124.729 925.278 122.107C924.745 120.919 924.458 119.751 924.437 118.563V77.5933C924.458 78.7814 924.745 79.949 925.278 81.1371C926.447 83.7592 928.805 86.0944 932.353 88.1429C933.296 88.696 934.281 89.1876 935.306 89.6383C938.116 90.8674 941.171 91.7278 944.514 92.2194C945.99 92.4242 947.447 92.5881 948.923 92.6496C951.999 92.8135 955.055 92.6701 958.09 92.1989V92.2194Z" fill="#6CADFF" stroke="#001E45" stroke-width="1.00584"/>
<path d="M1019.61 75.626V116.596L990.717 133.25C986.247 135.831 980.812 137.101 974.434 137.101C968.036 137.08 962.581 135.79 958.09 133.188V92.2186C959.033 92.7717 960.038 93.2634 961.084 93.6935C964.488 95.1275 968.344 95.9059 972.671 96.0903C973.245 96.1107 973.84 96.1312 974.434 96.1312C980.812 96.1312 986.247 94.8612 990.717 92.2801L994.654 90.0063L1019.61 75.626Z" fill="#6CADFF" stroke="#001E45" stroke-width="1.00584"/>
<path d="M948.679 153.429L943.603 158.506L942.18 159.929L943.603 161.351L948.679 166.427L945.952 169.153L940.876 164.077L939.454 162.654L938.031 164.077L932.954 169.153L930.229 166.428L936.728 159.929L935.306 158.506L930.229 153.429L932.954 150.703L938.031 155.78L939.454 157.202L945.953 150.703L948.679 153.429Z" stroke="white" stroke-opacity="0.1" stroke-width="4.02336"/>
<path d="M585.127 47.6113C585.127 47.9363 584.771 48.2001 584.332 48.2001C583.893 48.2001 583.536 47.9363 583.536 47.6113C583.536 47.2863 583.893 47.0225 584.332 47.0225C584.771 47.0263 585.127 47.2863 585.127 47.6113Z" fill="white"/>
<path d="M622.939 35.9445C622.939 37.2254 621.534 38.2654 619.804 38.2654C618.073 38.2654 616.668 37.2254 616.668 35.9445C616.668 34.6635 618.073 33.6235 619.804 33.6235C621.534 33.6235 622.939 34.6597 622.939 35.9445Z" stroke="url(#paint1_linear_269_16735)" stroke-width="1.00584" stroke-miterlimit="10"/>
<path d="M673.647 6.33261L679.525 1.14014" stroke="url(#paint2_linear_269_16735)" stroke-width="1.00584" stroke-miterlimit="10"/>
<path d="M675.45 7.45268L684.691 -0.703125" stroke="url(#paint3_linear_269_16735)" stroke-width="1.00584" stroke-miterlimit="10"/>
<path d="M673.647 11.7618L683.141 3.38428" stroke="url(#paint4_linear_269_16735)" stroke-width="1.00584" stroke-miterlimit="10"/>
<path d="M321.95 40.3634C322.9 40.3634 323.67 39.7934 323.67 39.0901C323.67 38.3869 322.9 37.8169 321.95 37.8169C321 37.8169 320.23 38.3869 320.23 39.0901C320.23 39.7934 321 40.3634 321.95 40.3634Z" fill="white"/>
<path d="M686.282 20.2446C686.282 20.5696 685.925 20.8334 685.486 20.8334C685.047 20.8334 684.691 20.5696 684.691 20.2446C684.691 19.9196 685.047 19.6558 685.486 19.6558C685.925 19.6596 686.282 19.9196 686.282 20.2446Z" fill="white"/>
<path d="M548.082 26.2059C548.082 26.9094 547.312 27.4792 546.362 27.4792C545.411 27.4792 544.642 26.9094 544.642 26.2059C544.642 25.5023 545.411 24.9326 546.362 24.9326C547.312 24.9326 548.082 25.5023 548.082 26.2059Z" fill="white"/>
<path d="M661.314 25.4364C661.314 26.1399 660.544 26.7096 659.594 26.7096C658.644 26.7096 657.874 26.1399 657.874 25.4364C657.874 24.7328 658.644 24.1631 659.594 24.1631C660.544 24.1631 661.314 24.7328 661.314 25.4364Z" fill="white"/>
<path d="M285.264 24.6134C286.214 24.6134 286.984 24.0434 286.984 23.3402C286.984 22.637 286.214 22.0669 285.264 22.0669C284.314 22.0669 283.544 22.637 283.544 23.3402C283.544 24.0434 284.314 24.6134 285.264 24.6134Z" fill="white"/>
<path d="M544.707 27.5055L549.459 28.9356L551.598 23.4678L544.707 27.5055Z" fill="#FF7E3D"/>
<path d="M811.358 131.961C811.358 132.286 811.002 132.55 810.563 132.55C810.124 132.55 809.767 132.286 809.767 131.961C809.767 131.636 810.124 131.372 810.563 131.372C811.002 131.376 811.358 131.636 811.358 131.961Z" fill="white"/>
<path d="M1103.87 190.822C1103.87 191.525 1103.25 192.095 1102.48 192.095C1101.72 192.095 1101.1 191.525 1101.1 190.822C1101.1 190.118 1101.72 189.548 1102.48 189.548C1103.25 189.545 1103.87 190.118 1103.87 190.822Z" fill="white"/>
<g opacity="0.2">
<path d="M13.889 18.027L21.1282 14.4041C22.158 13.8888 23.3682 14.1014 24.3029 14.9618L30.8734 21.0107C31.808 21.8711 32.3252 23.2488 32.2301 24.6246L31.5614 34.2963C31.4663 35.6721 30.7733 36.8372 29.7435 37.3525L22.5044 40.9754C21.4746 41.4908 20.2644 41.2782 19.3297 40.4177L12.7592 34.3689C11.8245 33.5084 11.3074 32.1308 11.4025 30.7549L12.0712 21.0832C12.1663 19.7074 12.8592 18.5424 13.889 18.027Z" fill="white"/>
<path fill-rule="evenodd" clip-rule="evenodd" d="M10.9632 14.7422C9.67595 15.3864 8.80973 16.8427 8.69083 18.5625L7.75892 32.0418C7.64002 33.7616 8.2865 35.4836 9.45485 36.5592L18.612 44.9893C19.7804 46.0649 21.2931 46.3306 22.5803 45.6864L32.6694 40.6373C33.9566 39.9931 34.8229 38.5368 34.9418 36.817L35.8737 23.3378C35.9926 21.618 35.3461 19.8959 34.1777 18.8204L25.0206 10.3902C23.8522 9.31464 22.3395 9.0489 21.0523 9.69311L10.9632 14.7422ZM11.2775 20.9438C11.3964 19.224 12.2626 17.7677 13.5499 17.1235L20.789 13.5007C22.0763 12.8564 23.589 13.1222 24.7573 14.1978L31.3278 20.2466C32.4962 21.3222 33.1427 23.0442 33.0238 24.764L32.3551 34.4357C32.2362 36.1555 31.37 37.6118 30.0827 38.256L22.8436 41.8789C21.5563 42.5231 20.0436 42.2573 18.8753 41.1818L12.3048 35.1329C11.1364 34.0573 10.4899 32.3353 10.6088 30.6155L11.2775 20.9438Z" fill="white"/>
</g>
<path d="M766.791 175.424L767.134 175.792L767.136 175.79L767.144 175.783L767.175 175.754C767.203 175.728 767.246 175.69 767.301 175.639C767.413 175.538 767.578 175.389 767.792 175.199C768.22 174.819 768.844 174.276 769.623 173.624C771.184 172.319 773.366 170.58 775.857 168.843C778.349 167.104 781.141 165.373 783.919 164.078C786.705 162.78 789.438 161.939 791.824 161.939C796.576 161.939 800.195 165.267 803.998 168.799L804.073 168.868C807.779 172.31 811.674 175.927 816.857 175.927C822.04 175.927 825.935 172.31 829.641 168.868L829.716 168.799C833.519 165.267 837.138 161.939 841.89 161.939C846.642 161.939 850.261 165.267 854.064 168.799L854.139 168.868C857.845 172.31 861.74 175.927 866.923 175.927C872.105 175.927 876 172.31 879.706 168.868L879.781 168.799C883.584 165.267 887.203 161.939 891.955 161.939C894.341 161.939 897.074 162.78 899.86 164.078C902.639 165.373 905.43 167.104 907.923 168.843C910.413 170.58 912.596 172.319 914.156 173.624C914.936 174.276 915.56 174.819 915.988 175.199C916.202 175.389 916.367 175.538 916.478 175.639C916.534 175.69 916.576 175.728 916.604 175.754L916.636 175.783L916.646 175.792L916.988 175.424L917.298 175.09C917.33 175.055 917.33 175.055 917.33 175.055L917.327 175.052L917.318 175.044L917.285 175.013C917.255 174.986 917.212 174.946 917.155 174.894C917.041 174.791 916.872 174.639 916.655 174.446C916.221 174.061 915.59 173.512 914.801 172.853C913.226 171.535 911.019 169.777 908.498 168.018C905.978 166.26 903.135 164.494 900.285 163.166C897.443 161.842 894.554 160.934 891.955 160.934C886.773 160.934 882.878 164.551 879.172 167.992L879.097 168.062C875.294 171.593 871.674 174.921 866.923 174.921C862.171 174.921 858.551 171.593 854.748 168.062L854.674 167.992C850.967 164.551 847.073 160.934 841.89 160.934C836.707 160.934 832.812 164.551 829.106 167.992L829.031 168.062C825.228 171.593 821.609 174.921 816.857 174.921C812.105 174.921 808.486 171.593 804.683 168.062L804.608 167.992C800.902 164.55 797.007 160.934 791.824 160.934C789.225 160.934 786.337 161.842 783.494 163.166C780.645 164.494 777.801 166.26 775.281 168.018C772.76 169.777 770.554 171.535 768.978 172.853C768.19 173.512 767.559 174.061 767.124 174.446C766.907 174.639 766.739 174.791 766.625 174.894C766.568 174.946 766.524 174.986 766.495 175.013L766.461 175.044L766.45 175.054C766.45 175.054 766.449 175.055 766.791 175.424Z" fill="white" fill-opacity="0.15"/>
<path d="M766.791 200.601L767.134 200.97L767.136 200.968L767.144 200.961L767.175 200.932C767.203 200.906 767.246 200.867 767.301 200.817C767.413 200.715 767.578 200.567 767.792 200.377C768.22 199.997 768.844 199.454 769.623 198.802C771.184 197.497 773.366 195.758 775.857 194.02C778.349 192.281 781.141 190.55 783.919 189.255C786.705 187.957 789.438 187.117 791.824 187.117C796.576 187.117 800.195 190.445 803.998 193.976L804.073 194.046C807.779 197.487 811.674 201.104 816.857 201.104C822.04 201.104 825.935 197.487 829.641 194.046L829.716 193.976C833.519 190.445 837.138 187.117 841.89 187.117C846.642 187.117 850.261 190.445 854.064 193.976L854.139 194.046C857.845 197.487 861.74 201.104 866.923 201.104C872.105 201.104 876 197.487 879.706 194.046L879.781 193.976C883.584 190.445 887.203 187.117 891.955 187.117C894.341 187.117 897.074 187.957 899.86 189.255C902.639 190.55 905.43 192.281 907.923 194.02C910.413 195.758 912.596 197.497 914.156 198.802C914.936 199.454 915.56 199.997 915.988 200.377C916.202 200.567 916.367 200.715 916.478 200.817C916.534 200.867 916.576 200.906 916.604 200.932L916.636 200.961L916.646 200.97L916.988 200.601C917.33 200.233 917.33 200.233 917.33 200.233L917.327 200.23L917.318 200.222L917.285 200.191C917.255 200.164 917.212 200.124 917.155 200.072C917.041 199.968 916.872 199.817 916.655 199.624C916.221 199.239 915.59 198.689 914.801 198.03C913.226 196.712 911.019 194.954 908.498 193.195C905.978 191.437 903.135 189.672 900.285 188.344C897.443 187.019 894.554 186.111 891.955 186.111C886.773 186.111 882.878 189.728 879.172 193.17L879.097 193.239C875.294 196.771 871.674 200.098 866.923 200.098C862.171 200.098 858.551 196.771 854.748 193.239L854.674 193.17C850.967 189.728 847.073 186.111 841.89 186.111C836.707 186.111 832.812 189.728 829.106 193.17L829.031 193.239C825.228 196.771 821.609 200.098 816.857 200.098C812.105 200.098 808.486 196.771 804.683 193.239L804.608 193.17C800.902 189.728 797.007 186.111 791.824 186.111C789.225 186.111 786.337 187.019 783.494 188.344C780.645 189.672 777.801 191.437 775.281 193.195C772.76 194.954 770.554 196.712 768.978 198.03C768.19 198.689 767.559 199.239 767.124 199.624C766.907 199.817 766.739 199.968 766.625 200.072C766.568 200.124 766.524 200.164 766.495 200.191L766.461 200.222L766.452 200.23L766.45 200.232C766.45 200.232 766.449 200.233 766.791 200.601Z" fill="white" fill-opacity="0.15"/>
<path d="M767.134 226.147L766.791 225.779C766.449 225.41 766.449 225.41 766.449 225.41L766.452 225.407L766.461 225.399L766.495 225.368C766.524 225.341 766.568 225.301 766.625 225.25C766.739 225.146 766.907 224.994 767.124 224.802C767.559 224.416 768.19 223.867 768.978 223.208C770.554 221.89 772.76 220.132 775.281 218.373C777.801 216.615 780.645 214.849 783.494 213.521C786.337 212.197 789.225 211.289 791.824 211.289C797.007 211.289 800.902 214.906 804.608 218.347L804.683 218.417C808.486 221.948 812.105 225.276 816.857 225.276C821.609 225.276 825.228 221.948 829.031 218.417L829.106 218.347C832.812 214.906 836.707 211.289 841.89 211.289C847.073 211.289 850.967 214.906 854.674 218.347L854.748 218.417C858.551 221.948 862.171 225.276 866.923 225.276C871.674 225.276 875.294 221.948 879.097 218.417L879.172 218.347C882.878 214.906 886.773 211.289 891.955 211.289C894.554 211.289 897.443 212.197 900.285 213.521C903.135 214.849 905.978 216.615 908.498 218.373C911.019 220.132 913.226 221.89 914.801 223.208C915.59 223.867 916.221 224.416 916.655 224.802C916.872 224.994 917.041 225.146 917.155 225.25C917.212 225.301 917.255 225.341 917.285 225.368L917.318 225.399L917.329 225.409C917.329 225.409 917.33 225.41 916.988 225.779L916.646 226.147L916.644 226.145L916.636 226.138L916.604 226.109L916.584 226.09L916.543 226.053C916.524 226.035 916.502 226.016 916.478 225.994C916.367 225.893 916.202 225.744 915.988 225.554C915.56 225.174 914.936 224.631 914.156 223.979C912.596 222.674 910.413 220.935 907.923 219.198C905.43 217.459 902.639 215.728 899.86 214.433C897.074 213.135 894.341 212.294 891.955 212.294C887.203 212.294 883.584 215.622 879.781 219.154L879.706 219.223C876 222.665 872.105 226.282 866.923 226.282C861.74 226.282 857.845 222.665 854.139 219.223L854.064 219.154C850.261 215.622 846.642 212.294 841.89 212.294C837.138 212.294 833.519 215.622 829.716 219.154L829.641 219.223C825.935 222.665 822.04 226.282 816.857 226.282C811.674 226.282 807.779 222.665 804.073 219.223L803.998 219.154C800.195 215.622 796.576 212.294 791.824 212.294C789.438 212.294 786.705 213.135 783.919 214.433C781.141 215.728 778.349 217.459 775.857 219.198C773.366 220.935 771.184 222.674 769.623 223.979C768.844 224.631 768.22 225.174 767.792 225.554C767.578 225.744 767.413 225.893 767.301 225.994C767.246 226.045 767.203 226.083 767.175 226.109L767.144 226.138L767.134 226.147Z" fill="white" fill-opacity="0.15"/>
<path d="M766.791 250.956L767.134 251.324L767.144 251.315L767.175 251.286C767.203 251.26 767.246 251.221 767.301 251.171C767.413 251.07 767.578 250.921 767.792 250.731C768.22 250.351 768.844 249.808 769.623 249.156C771.184 247.851 773.366 246.112 775.857 244.374C778.349 242.636 781.141 240.904 783.919 239.61C786.705 238.311 789.438 237.471 791.824 237.471C796.576 237.471 800.195 240.799 803.998 244.331L804.073 244.4C807.779 247.842 811.674 251.459 816.857 251.459C822.04 251.459 825.935 247.842 829.641 244.4L829.716 244.331C833.519 240.799 837.138 237.471 841.89 237.471C846.642 237.471 850.261 240.799 854.064 244.331L854.139 244.4C857.845 247.842 861.74 251.459 866.923 251.459C872.105 251.459 876 247.842 879.706 244.4L879.781 244.331C883.584 240.799 887.203 237.471 891.955 237.471C894.341 237.471 897.074 238.311 899.86 239.61C902.639 240.904 905.43 242.636 907.923 244.374C910.413 246.112 912.596 247.851 914.156 249.156C914.936 249.808 915.56 250.351 915.988 250.731C916.202 250.921 916.367 251.07 916.478 251.171C916.534 251.221 916.576 251.26 916.604 251.286L916.636 251.315L916.644 251.322L916.646 251.324L916.988 250.956C917.33 250.587 917.33 250.587 917.33 250.587L917.327 250.584L917.318 250.576L917.285 250.545C917.255 250.518 917.212 250.478 917.155 250.426C917.041 250.323 916.872 250.171 916.655 249.978C916.221 249.593 915.59 249.043 914.801 248.384C913.226 247.067 911.019 245.309 908.498 243.55C905.978 241.792 903.135 240.026 900.285 238.698C897.443 237.374 894.554 236.465 891.955 236.465C886.773 236.465 882.878 240.082 879.172 243.524L879.097 243.593C875.294 247.125 871.674 250.453 866.923 250.453C862.171 250.453 858.551 247.125 854.748 243.593L854.674 243.524C850.967 240.082 847.073 236.465 841.89 236.465C836.707 236.465 832.812 240.082 829.106 243.524L829.031 243.593C825.228 247.125 821.609 250.453 816.857 250.453C812.105 250.453 808.486 247.125 804.683 243.593L804.608 243.524C800.902 240.082 797.007 236.465 791.824 236.465C789.225 236.465 786.337 237.374 783.494 238.698C780.645 240.026 777.801 241.792 775.281 243.55C772.76 245.309 770.554 247.067 768.978 248.384C768.19 249.043 767.559 249.593 767.124 249.978C766.907 250.171 766.739 250.323 766.625 250.426C766.568 250.478 766.524 250.518 766.495 250.545L766.461 250.576L766.452 250.584L766.45 250.586C766.45 250.586 766.449 250.587 766.791 250.956Z" fill="white" fill-opacity="0.15"/>
<path d="M959.913 171.401L960.255 171.77L960.257 171.768L960.265 171.761L960.297 171.732C960.325 171.706 960.367 171.667 960.423 171.616C960.534 171.515 960.699 171.366 960.913 171.177C961.342 170.797 961.965 170.254 962.745 169.602C964.305 168.297 966.488 166.558 968.979 164.82C971.471 163.081 974.262 161.35 977.041 160.055C979.827 158.757 982.56 157.917 984.946 157.917C989.698 157.917 993.317 161.245 997.12 164.776L997.195 164.846C1000.9 168.287 1004.8 171.904 1009.98 171.904C1015.16 171.904 1019.06 168.287 1022.76 164.846L1022.84 164.776C1026.64 161.245 1030.26 157.917 1035.01 157.917C1039.76 157.917 1043.38 161.245 1047.19 164.776L1047.26 164.846C1050.97 168.287 1054.86 171.904 1060.04 171.904C1065.23 171.904 1069.12 168.287 1072.83 164.846L1072.9 164.776C1076.71 161.245 1080.33 157.917 1085.08 157.917C1087.46 157.917 1090.2 158.757 1092.98 160.055C1095.76 161.35 1098.55 163.081 1101.04 164.82C1103.53 166.558 1105.72 168.297 1107.28 169.602C1108.06 170.254 1108.68 170.797 1109.11 171.177C1109.32 171.366 1109.49 171.515 1109.6 171.616C1109.66 171.667 1109.7 171.706 1109.73 171.732L1109.76 171.761L1109.77 171.769L1110.11 171.401L1110.42 171.067C1110.45 171.033 1110.45 171.033 1110.45 171.033L1110.45 171.03L1110.44 171.022L1110.41 170.991C1110.38 170.964 1110.33 170.924 1110.28 170.872C1110.16 170.768 1109.99 170.617 1109.78 170.424C1109.34 170.039 1108.71 169.489 1107.92 168.83C1106.35 167.512 1104.14 165.754 1101.62 163.995C1099.1 162.237 1096.26 160.472 1093.41 159.144C1090.56 157.819 1087.68 156.911 1085.08 156.911C1079.89 156.911 1076 160.528 1072.29 163.97L1072.22 164.039C1068.42 167.571 1064.8 170.898 1060.04 170.898C1055.29 170.898 1051.67 167.571 1047.87 164.039L1047.8 163.97C1044.09 160.528 1040.19 156.911 1035.01 156.911C1029.83 156.911 1025.93 160.528 1022.23 163.97L1022.15 164.039C1018.35 167.571 1014.73 170.898 1009.98 170.898C1005.23 170.898 1001.61 167.571 997.804 164.039L997.73 163.97C994.023 160.528 990.129 156.911 984.946 156.911C982.347 156.911 979.458 157.819 976.616 159.144C973.766 160.472 970.923 162.237 968.403 163.995C965.882 165.754 963.675 167.512 962.1 168.83C961.312 169.489 960.681 170.039 960.246 170.424C960.029 170.617 959.861 170.768 959.746 170.872C959.689 170.924 959.646 170.964 959.616 170.991L959.583 171.022L959.572 171.032C959.572 171.032 959.571 171.033 959.913 171.401Z" fill="white" fill-opacity="0.15"/>
<path d="M959.913 196.579L960.255 196.947L960.257 196.945L960.265 196.938L960.297 196.909C960.325 196.883 960.367 196.845 960.423 196.794C960.534 196.693 960.699 196.544 960.913 196.354C961.342 195.975 961.965 195.431 962.745 194.779C964.305 193.474 966.488 191.736 968.979 189.998C971.471 188.259 974.262 186.528 977.041 185.233C979.827 183.935 982.56 183.095 984.946 183.095C989.698 183.095 993.317 186.422 997.12 189.954L997.195 190.023C1000.9 193.465 1004.8 197.082 1009.98 197.082C1015.16 197.082 1019.06 193.465 1022.76 190.023L1022.84 189.954C1026.64 186.422 1030.26 183.095 1035.01 183.095C1039.76 183.095 1043.38 186.422 1047.19 189.954L1047.26 190.023C1050.97 193.465 1054.86 197.082 1060.04 197.082C1065.23 197.082 1069.12 193.465 1072.83 190.023L1072.9 189.954C1076.71 186.422 1080.33 183.095 1085.08 183.095C1087.46 183.095 1090.2 183.935 1092.98 185.233C1095.76 186.528 1098.55 188.259 1101.04 189.998C1103.53 191.736 1105.72 193.474 1107.28 194.779C1108.06 195.431 1108.68 195.975 1109.11 196.354C1109.32 196.544 1109.49 196.693 1109.6 196.794C1109.66 196.845 1109.7 196.883 1109.73 196.909L1109.76 196.938L1109.77 196.947L1110.11 196.579C1110.45 196.21 1110.45 196.21 1110.45 196.21L1110.45 196.207L1110.44 196.199L1110.41 196.168C1110.38 196.141 1110.33 196.101 1110.28 196.05C1110.16 195.946 1109.99 195.794 1109.78 195.602C1109.34 195.216 1108.71 194.667 1107.92 194.008C1106.35 192.69 1104.14 190.932 1101.62 189.173C1099.1 187.415 1096.26 185.649 1093.41 184.321C1090.56 182.997 1087.68 182.089 1085.08 182.089C1079.89 182.089 1076 185.706 1072.29 189.147L1072.22 189.217C1068.42 192.748 1064.8 196.076 1060.04 196.076C1055.29 196.076 1051.67 192.748 1047.87 189.217L1047.8 189.147C1044.09 185.706 1040.19 182.089 1035.01 182.089C1029.83 182.089 1025.93 185.706 1022.23 189.147L1022.15 189.217C1018.35 192.748 1014.73 196.076 1009.98 196.076C1005.23 196.076 1001.61 192.748 997.804 189.217L997.73 189.147C994.023 185.706 990.129 182.089 984.946 182.089C982.347 182.089 979.458 182.997 976.616 184.321C973.766 185.649 970.923 187.415 968.403 189.173C965.882 190.932 963.675 192.69 962.1 194.008C961.312 194.667 960.681 195.216 960.246 195.602C960.029 195.794 959.861 195.946 959.746 196.05C959.689 196.101 959.646 196.141 959.616 196.168L959.583 196.199L959.574 196.207L959.572 196.21C959.572 196.21 959.571 196.21 959.913 196.579Z" fill="white" fill-opacity="0.15"/>
<path d="M960.255 222.125L959.913 221.756C959.571 221.388 959.571 221.388 959.571 221.388L959.574 221.385L959.583 221.377L959.616 221.346C959.646 221.319 959.689 221.279 959.746 221.227C959.861 221.123 960.029 220.972 960.246 220.779C960.681 220.394 961.312 219.844 962.1 219.185C963.675 217.867 965.882 216.109 968.403 214.35C970.923 212.592 973.766 210.827 976.616 209.499C979.458 208.174 982.347 207.266 984.946 207.266C990.129 207.266 994.023 210.883 997.73 214.325L997.804 214.394C1001.61 217.926 1005.23 221.253 1009.98 221.253C1014.73 221.253 1018.35 217.926 1022.15 214.394L1022.23 214.325C1025.93 210.883 1029.83 207.266 1035.01 207.266C1040.19 207.266 1044.09 210.883 1047.8 214.325L1047.87 214.394C1051.67 217.926 1055.29 221.253 1060.04 221.253C1064.8 221.253 1068.42 217.926 1072.22 214.394L1072.29 214.325C1076 210.883 1079.89 207.266 1085.08 207.266C1087.68 207.266 1090.56 208.174 1093.41 209.499C1096.26 210.827 1099.1 212.592 1101.62 214.35C1104.14 216.109 1106.35 217.867 1107.92 219.185C1108.71 219.844 1109.34 220.394 1109.78 220.779C1109.99 220.972 1110.16 221.123 1110.28 221.227C1110.33 221.279 1110.38 221.319 1110.41 221.346L1110.44 221.377L1110.45 221.387C1110.45 221.387 1110.45 221.388 1110.11 221.756L1109.77 222.125L1109.77 222.123L1109.76 222.116L1109.73 222.087L1109.71 222.068L1109.66 222.03C1109.65 222.013 1109.62 221.993 1109.6 221.972C1109.49 221.87 1109.32 221.721 1109.11 221.532C1108.68 221.152 1108.06 220.609 1107.28 219.957C1105.72 218.652 1103.53 216.913 1101.04 215.175C1098.55 213.436 1095.76 211.705 1092.98 210.41C1090.2 209.112 1087.46 208.272 1085.08 208.272C1080.33 208.272 1076.71 211.6 1072.9 215.131L1072.83 215.201C1069.12 218.642 1065.23 222.259 1060.04 222.259C1054.86 222.259 1050.97 218.642 1047.26 215.201L1047.19 215.131C1043.38 211.6 1039.76 208.272 1035.01 208.272C1030.26 208.272 1026.64 211.6 1022.84 215.131L1022.76 215.201C1019.06 218.642 1015.16 222.259 1009.98 222.259C1004.8 222.259 1000.9 218.642 997.195 215.201L997.12 215.131C993.317 211.6 989.698 208.272 984.946 208.272C982.56 208.272 979.827 209.112 977.041 210.41C974.262 211.705 971.471 213.436 968.979 215.175C966.488 216.913 964.305 218.652 962.745 219.957C961.965 220.609 961.342 221.152 960.913 221.532C960.699 221.721 960.534 221.87 960.423 221.972C960.367 222.022 960.325 222.061 960.297 222.087L960.265 222.116L960.255 222.125Z" fill="white" fill-opacity="0.15"/>
<path d="M959.913 246.933L960.255 247.302L960.265 247.292L960.297 247.263C960.325 247.238 960.367 247.199 960.423 247.148C960.534 247.047 960.699 246.898 960.913 246.708C961.342 246.329 961.965 245.786 962.745 245.133C964.305 243.829 966.488 242.09 968.979 240.352C971.471 238.613 974.262 236.882 977.041 235.587C979.827 234.289 982.56 233.449 984.946 233.449C989.698 233.449 993.317 236.777 997.12 240.308L997.195 240.378C1000.9 243.819 1004.8 247.436 1009.98 247.436C1015.16 247.436 1019.06 243.819 1022.76 240.378L1022.84 240.308C1026.64 236.777 1030.26 233.449 1035.01 233.449C1039.76 233.449 1043.38 236.777 1047.19 240.308L1047.26 240.378C1050.97 243.819 1054.86 247.436 1060.04 247.436C1065.23 247.436 1069.12 243.819 1072.83 240.378L1072.9 240.308C1076.71 236.777 1080.33 233.449 1085.08 233.449C1087.46 233.449 1090.2 234.289 1092.98 235.587C1095.76 236.882 1098.55 238.613 1101.04 240.352C1103.53 242.09 1105.72 243.829 1107.28 245.133C1108.06 245.786 1108.68 246.329 1109.11 246.708C1109.32 246.898 1109.49 247.047 1109.6 247.148C1109.66 247.199 1109.7 247.238 1109.73 247.263L1109.76 247.292L1109.77 247.3L1109.77 247.301L1110.11 246.933C1110.45 246.565 1110.45 246.564 1110.45 246.564L1110.45 246.562L1110.44 246.554L1110.41 246.523C1110.38 246.496 1110.33 246.456 1110.28 246.404C1110.16 246.3 1109.99 246.148 1109.78 245.956C1109.34 245.571 1108.71 245.021 1107.92 244.362C1106.35 243.044 1104.14 241.286 1101.62 239.527C1099.1 237.769 1096.26 236.003 1093.41 234.676C1090.56 233.351 1087.68 232.443 1085.08 232.443C1079.89 232.443 1076 236.06 1072.29 239.502L1072.22 239.571C1068.42 243.102 1064.8 246.43 1060.04 246.43C1055.29 246.43 1051.67 243.102 1047.87 239.571L1047.8 239.502C1044.09 236.06 1040.19 232.443 1035.01 232.443C1029.83 232.443 1025.93 236.06 1022.23 239.502L1022.15 239.571C1018.35 243.102 1014.73 246.43 1009.98 246.43C1005.23 246.43 1001.61 243.102 997.804 239.571L997.73 239.502C994.023 236.06 990.129 232.443 984.946 232.443C982.347 232.443 979.458 233.351 976.616 234.676C973.766 236.003 970.923 237.769 968.403 239.527C965.882 241.286 963.675 243.044 962.1 244.362C961.312 245.021 960.681 245.571 960.246 245.956C960.029 246.148 959.861 246.3 959.746 246.404C959.689 246.456 959.646 246.496 959.616 246.523L959.583 246.554L959.574 246.562L959.572 246.564C959.572 246.564 959.571 246.565 959.913 246.933Z" fill="white" fill-opacity="0.15"/>
<path fill-rule="evenodd" clip-rule="evenodd" d="M46.2553 186.08C45.6355 186.08 45.1329 186.582 45.1329 187.201V263.436C45.1329 264.055 45.6355 264.557 46.2553 264.557C46.8752 264.557 47.3778 264.055 47.3778 263.436V187.201C47.3778 186.582 46.8752 186.08 46.2553 186.08ZM38.3979 197.291C37.778 197.291 37.2754 197.793 37.2754 198.412V263.436C37.2754 264.055 37.778 264.557 38.3979 264.557C39.0178 264.557 39.5204 264.055 39.5204 263.436V198.412C39.5204 197.793 39.0178 197.291 38.3979 197.291ZM30.5405 208.502C29.9206 208.502 29.418 209.004 29.418 209.623V263.436C29.418 264.055 29.9206 264.557 30.5405 264.557C31.1604 264.557 31.663 264.055 31.663 263.436V209.623C31.663 209.004 31.1604 208.502 30.5405 208.502ZM22.6831 219.713C22.0632 219.713 21.5606 220.215 21.5606 220.834V263.436C21.5606 264.055 22.0632 264.557 22.6831 264.557C23.303 264.557 23.8056 264.055 23.8056 263.436V220.834C23.8056 220.215 23.303 219.713 22.6831 219.713ZM14.8257 230.924C14.2058 230.924 13.7032 231.426 13.7032 232.045V263.436C13.7032 264.055 14.2058 264.557 14.8257 264.557C15.4456 264.557 15.9482 264.055 15.9482 263.436V232.045C15.9482 231.426 15.4456 230.924 14.8257 230.924ZM6.9683 242.135C6.34841 242.135 5.84581 242.637 5.84581 243.256V263.436C5.84581 264.055 6.34841 264.557 6.9683 264.557C7.58819 264.557 8.09079 264.055 8.09079 263.436V243.256C8.09079 242.637 7.58819 242.135 6.9683 242.135ZM-2.0116 254.467C-2.0116 253.848 -1.509 253.346 -0.88911 253.346C-0.269221 253.346 0.233377 253.848 0.233377 254.467V263.436C0.233377 264.055 -0.269221 264.557 -0.88911 264.557C-1.509 264.557 -2.0116 264.055 -2.0116 263.436V254.467ZM94.5223 254.467C94.5223 253.848 94.0197 253.346 93.3998 253.346C92.7799 253.346 92.2773 253.848 92.2773 254.467V263.436C92.2773 264.055 92.7799 264.557 93.3998 264.557C94.0197 264.557 94.5223 264.055 94.5223 263.436V254.467ZM86.6649 243.256C86.6649 242.637 86.1623 242.135 85.5424 242.135C84.9225 242.135 84.4199 242.637 84.4199 243.256V263.436C84.4199 264.055 84.9225 264.557 85.5424 264.557C86.1623 264.557 86.6649 264.055 86.6649 263.436V243.256ZM78.8075 232.045C78.8075 231.426 78.3049 230.924 77.685 230.924C77.0651 230.924 76.5625 231.426 76.5625 232.045V263.436C76.5625 264.055 77.0651 264.557 77.685 264.557C78.3049 264.557 78.8075 264.055 78.8075 263.436V232.045ZM70.9501 220.834C70.9501 220.215 70.4475 219.713 69.8276 219.713C69.2077 219.713 68.7051 220.215 68.7051 220.834V263.436C68.7051 264.055 69.2077 264.557 69.8276 264.557C70.4475 264.557 70.9501 264.055 70.9501 263.436V220.834ZM63.0926 209.623C63.0926 209.004 62.59 208.502 61.9702 208.502C61.3503 208.502 60.8477 209.004 60.8477 209.623V263.436C60.8477 264.055 61.3503 264.557 61.9702 264.557C62.59 264.557 63.0926 264.055 63.0926 263.436V209.623ZM55.2352 198.412C55.2352 197.793 54.7326 197.291 54.1128 197.291C53.4929 197.291 52.9903 197.793 52.9903 198.412V263.436C52.9903 264.055 53.4929 264.557 54.1128 264.557C54.7326 264.557 55.2352 264.055 55.2352 263.436V198.412Z" fill="white" fill-opacity="0.1"/>
</g>
<defs>
<linearGradient id="paint0_linear_269_16735" x1="47.8999" y1="59.5" x2="418.9" y2="211" gradientUnits="userSpaceOnUse">
<stop stop-color="#065CCA"/>
<stop offset="1" stop-color="#5B40FF"/>
</linearGradient>
<linearGradient id="paint1_linear_269_16735" x1="616.409" y1="35.9431" x2="623.195" y2="35.9431" gradientUnits="userSpaceOnUse">
<stop offset="0.0277" stop-color="#FFD24D"/>
<stop offset="0.7154" stop-color="#F6BE56"/>
<stop offset="1" stop-color="#F2B45A"/>
</linearGradient>
<linearGradient id="paint2_linear_269_16735" x1="673.18" y1="3.95749" x2="679.949" y2="3.15623" gradientUnits="userSpaceOnUse">
<stop offset="0.0277" stop-color="#FFD24D"/>
<stop offset="0.7154" stop-color="#F6BE56"/>
<stop offset="1" stop-color="#F2B45A"/>
</linearGradient>
<linearGradient id="paint3_linear_269_16735" x1="674.826" y1="3.71596" x2="685.253" y2="2.48158" gradientUnits="userSpaceOnUse">
<stop offset="0.0277" stop-color="#FFD24D"/>
<stop offset="0.7154" stop-color="#F6BE56"/>
<stop offset="1" stop-color="#F2B45A"/>
</linearGradient>
<linearGradient id="paint4_linear_269_16735" x1="673.007" y1="7.92249" x2="683.71" y2="6.65546" gradientUnits="userSpaceOnUse">
<stop offset="0.0277" stop-color="#FFD24D"/>
<stop offset="0.7154" stop-color="#F6BE56"/>
<stop offset="1" stop-color="#F2B45A"/>
</linearGradient>
<clipPath id="clip0_269_16735">
<rect width="1102" height="241" rx="8.04671" fill="white"/>
</clipPath>
</defs>
</svg>
