<svg width="86" height="31" viewBox="0 0 86 31" fill="none" xmlns="http://www.w3.org/2000/svg">
<g clip-path="url(#clip0_196_15829)">
<mask id="mask0_196_15829" style="mask-type:luminance" maskUnits="userSpaceOnUse" x="0" y="0" width="21" height="30">
<path d="M2.61794 26.4382C2.25684 26.0771 2.05222 25.5836 2.05222 25.066V23.4411C2.82858 23.4411 3.81557 23.8503 4.52572 24.5665C5.23588 25.2887 5.65114 26.2636 5.65114 26.9678L3.9901 26.9979C3.47253 26.9979 2.98505 26.7932 2.61794 26.4321M6.06639 22.9235C4.97709 21.8282 3.5628 21.112 2.03417 20.8833V17.2302C4.6822 17.483 6.88488 18.1691 8.75655 20.0528C10.6342 21.9425 11.5009 24.3137 11.7416 26.9618L8.08251 26.9738C7.86585 25.4452 7.16172 24.0248 6.06639 22.9235ZM10.4657 18.5182C8.20889 16.2553 5.2118 14.8711 2.02213 14.6183L2.04019 10.5921C6.38536 10.8569 9.91206 12.4578 12.9814 15.5331C16.0507 18.6144 18.0247 22.6166 18.2774 26.9618L14.3415 26.9738C14.1008 23.7841 12.7226 20.787 10.4657 18.5182ZM10.4176 10.5861C12.7166 8.31722 14.1068 5.29004 14.3355 2.07028L18.0728 2.05824C17.8501 6.16269 16.3576 9.68938 13.5531 12.7045C12.4457 11.7296 11.7115 11.2902 10.4116 10.5861M2.02815 8.22093V8.18482C3.5628 7.95011 4.98311 7.22792 6.07241 6.12056C7.16172 5.0132 7.86585 3.58688 8.07649 2.0462L11.7476 2.06426C11.5009 5.00116 10.1287 7.39041 7.90196 9.32227C5.86177 8.48573 4.23083 8.33527 2.02213 8.22695M2.02815 3.96001C2.02815 3.70724 2.0763 3.45447 2.17861 3.21976C2.28092 2.98505 2.41934 2.77441 2.59988 2.59387C2.78043 2.41332 2.99107 2.26888 3.22578 2.17259C3.46049 2.0763 3.71326 2.02815 3.96603 2.02815L5.64512 2.0462C5.64512 2.82256 5.22384 3.7915 4.5197 4.5197C3.80955 5.24791 2.84061 5.64512 2.0462 5.64512L2.02815 3.96001ZM3.96603 0C3.44244 0 2.93089 0.10231 2.44943 0.300912C1.96797 0.499515 1.52864 0.794409 1.16152 1.16152C0.794409 1.52864 0.499515 1.96797 0.300912 2.44943C0.10231 2.93089 0 3.44846 0 3.96603V25.066C0 25.5896 0.10231 26.1011 0.300912 26.5826C0.499515 27.0641 0.794409 27.4974 1.16152 27.8705C1.52864 28.2376 1.96797 28.5325 2.44943 28.7311C2.93089 28.9297 3.44244 29.032 3.96603 29.032H3.9901L20.775 28.9839V27.9728C20.775 22.9837 18.8853 18.1811 15.491 14.5341C18.8973 10.887 20.787 6.07241 20.769 1.08328V0.0662007L3.99612 0H3.97806H3.96603Z" fill="white"/>
</mask>
<g mask="url(#mask0_196_15829)">
<path d="M-13.4447 9.03954L14.3055 -9.62305L34.2199 19.9928L6.46972 38.6554L-13.4447 9.03954Z" fill="url(#paint0_linear_196_15829)"/>
</g>
<path d="M24.8193 13.8397V-0.730469H27.4553V8.57976L31.0001 4.1082H34.0453L30.2177 8.74226L34.2499 13.8397H31.0241L27.4553 9.10335V13.8397H24.8193Z" fill="#031455"/>
<path d="M39.0225 14.1405C38.0415 14.1405 37.1569 13.9118 36.3745 13.4664C35.5921 13.0151 34.9662 12.4072 34.4968 11.6429C34.0334 10.8786 33.8047 10.012 33.8047 9.04301C33.8047 8.07407 34.0334 7.24957 34.4908 6.48526C34.9482 5.72094 35.568 5.1131 36.3564 4.66173C37.1448 4.21036 38.0235 3.98768 39.0045 3.98768C39.9854 3.98768 40.8701 4.21638 41.6645 4.66173C42.4589 5.10708 43.0788 5.71492 43.5362 6.47322C43.9936 7.23152 44.2223 8.08611 44.2223 9.04301C44.2223 9.99991 43.9936 10.8786 43.5362 11.6549C43.0788 12.4253 42.4589 13.0331 41.6705 13.4785C40.8821 13.9238 39.9975 14.1405 39.0225 14.1405ZM38.9984 11.679C39.7507 11.679 40.3586 11.4323 40.822 10.9448C41.2854 10.4573 41.5141 9.82538 41.5141 9.06107C41.5141 8.29675 41.2794 7.67085 40.8099 7.18337C40.3405 6.6959 39.7327 6.45517 38.9984 6.45517C38.2642 6.45517 37.6744 6.70191 37.205 7.18939C36.7356 7.67687 36.5009 8.30277 36.5009 9.05505C36.5009 9.80733 36.7356 10.4513 37.205 10.9388C37.6744 11.4262 38.2762 11.673 38.9984 11.673M50.716 3.90343C50.1743 4.01778 49.8554 4.12009 49.4341 4.33674C48.9526 4.58951 48.4832 4.99875 48.1883 5.32975V4.10203H45.5523V13.8335H48.1883V8.45322C48.1883 7.72502 48.3628 7.18939 48.7119 6.83431C49.061 6.47322 49.6026 6.17231 50.1141 6.14222C50.5174 6.11814 51.047 6.09407 51.6608 6.5334V3.81315C51.5104 3.80714 50.9808 3.84325 50.71 3.89741M56.5597 14.0442C55.675 14.0442 54.8746 13.8215 54.1704 13.3762C53.4663 12.9308 52.9066 12.329 52.4974 11.5647C52.0881 10.8003 51.8835 9.93973 51.8835 8.98283C51.8835 8.02593 52.0881 7.16532 52.4974 6.39498C52.9066 5.62465 53.4663 5.0168 54.1704 4.57145C54.8746 4.1261 55.663 3.90343 56.5416 3.90343C57.1194 3.90343 57.655 3.99972 58.1425 4.20434C58.63 4.40294 59.0452 4.67978 59.3822 5.03486V4.10805H62.0002V13.8396H59.3822V12.9127C59.0452 13.2618 58.636 13.5386 58.1545 13.7433C57.6731 13.9419 57.1435 14.0442 56.5597 14.0442ZM57.0472 11.6068C57.7874 11.6068 58.3832 11.36 58.8406 10.8726C59.298 10.3851 59.5267 9.74715 59.5267 8.97079C59.5267 8.19444 59.298 7.57456 58.8406 7.08708C58.3832 6.5996 57.7874 6.35286 57.0472 6.35286C56.3069 6.35286 55.7292 6.5996 55.2718 7.08708C54.8144 7.57456 54.5857 8.20648 54.5857 8.97079C54.5857 9.73511 54.8144 10.3851 55.2718 10.8726C55.7292 11.36 56.319 11.6068 57.0472 11.6068Z" fill="#031455"/>
</g>
<path d="M24.744 28L25.788 19.48H27.204L26.316 26.728H29.832L29.676 28H24.744ZM32.9996 28.096C31.6076 28.096 30.9836 27.028 30.9836 25.72C30.9836 23.872 32.1116 22.06 33.8636 22.06C34.4636 22.06 35.0156 22.228 35.3996 22.624L35.4356 22.612L35.4956 22.156H36.8036L36.0836 28H34.7756L34.9076 26.932L34.8716 26.92C34.3196 27.712 33.6116 28.096 32.9996 28.096ZM33.2516 26.932C34.0676 26.932 35.0396 25.816 35.2676 24.016L35.2916 23.8C34.9436 23.464 34.4156 23.26 33.9596 23.26C32.9276 23.26 32.3156 24.556 32.3156 25.744C32.3156 26.464 32.6396 26.932 33.2516 26.932ZM39.4859 28.096C38.2739 28.096 37.7099 27.412 37.9379 25.744L38.4419 22.144H39.7499L39.2819 25.624C39.1499 26.584 39.3659 26.896 39.8939 26.896C40.5179 26.896 41.5619 25.96 41.7299 24.64L42.0299 22.144H43.3499L42.6299 28H41.3099L41.4419 26.956H41.4179C40.9739 27.628 40.3379 28.096 39.4859 28.096ZM44.297 28L45.029 22.144H46.337L46.217 23.152L46.241 23.164C46.853 22.42 47.561 22.06 48.341 22.06C49.589 22.06 50.009 22.864 49.793 24.472L49.313 28H48.005L48.461 24.58C48.581 23.728 48.473 23.248 47.897 23.248C47.177 23.248 46.073 24.352 45.881 25.816L45.617 28H44.297ZM53.3769 28.084C51.9129 28.084 50.9529 27.256 50.9529 25.6C50.9529 23.704 52.1049 22.06 54.0489 22.06C54.9729 22.06 55.7529 22.408 56.1849 23.044L55.1529 23.812C54.9009 23.44 54.4929 23.26 54.0129 23.26C52.9809 23.26 52.2849 24.256 52.2849 25.492C52.2849 26.5 52.8369 26.884 53.4369 26.884C53.8329 26.884 54.3369 26.704 54.7569 26.26L55.7889 27.004C55.1409 27.676 54.4209 28.084 53.3769 28.084ZM56.8712 28L57.9632 19.168H59.2712L58.7792 23.152L58.8032 23.164C59.4032 22.42 60.1472 22.06 60.9152 22.06C62.1632 22.06 62.5832 22.864 62.3672 24.472L61.8872 28H60.5672L61.0352 24.58C61.1552 23.728 61.0472 23.248 60.4712 23.248C59.7512 23.248 58.6352 24.364 58.4552 25.852L58.1912 28H56.8712ZM65.7007 30.376L66.7087 22.144H68.0167L67.8847 23.236L67.9087 23.26C68.4367 22.468 69.0967 22.06 69.9607 22.06C71.2327 22.06 71.8447 23.176 71.8447 24.436C71.8447 26.272 70.7287 28.096 68.9407 28.096C68.3407 28.096 67.7887 27.952 67.3807 27.58L67.3567 27.592L67.0087 30.376H65.7007ZM68.6047 26.908C69.8167 26.908 70.5247 25.732 70.5247 24.544C70.5247 23.848 70.2487 23.236 69.6487 23.236C68.7487 23.236 67.7527 24.352 67.5367 26.044L67.5007 26.332C67.7167 26.716 68.1487 26.908 68.6047 26.908ZM74.8121 28.096C73.4201 28.096 72.7961 27.028 72.7961 25.72C72.7961 23.872 73.9241 22.06 75.6761 22.06C76.2761 22.06 76.8281 22.228 77.2121 22.624L77.2481 22.612L77.3081 22.156H78.6161L77.8961 28H76.5881L76.7201 26.932L76.6841 26.92C76.1321 27.712 75.4241 28.096 74.8121 28.096ZM75.0641 26.932C75.8801 26.932 76.8521 25.816 77.0801 24.016L77.1041 23.8C76.7561 23.464 76.2281 23.26 75.7721 23.26C74.7401 23.26 74.1281 24.556 74.1281 25.744C74.1281 26.464 74.4521 26.932 75.0641 26.932ZM81.5624 28.096C80.1704 28.096 79.5464 27.028 79.5464 25.72C79.5464 23.884 80.6744 22.06 82.4264 22.06C82.9904 22.06 83.5664 22.204 84.0104 22.624L84.0464 22.612L84.4664 19.168H85.7864L84.6944 28H83.3744L83.5184 26.908L83.4824 26.896C82.9304 27.712 82.2344 28.096 81.5624 28.096ZM81.8144 26.932C82.6664 26.932 83.6264 25.816 83.8664 24.04L83.9024 23.776C83.5664 23.416 83.0384 23.26 82.5224 23.26C81.4904 23.26 80.8784 24.568 80.8784 25.744C80.8784 26.464 81.2024 26.932 81.8144 26.932Z" fill="#5B40FF"/>
<defs>
<linearGradient id="paint0_linear_196_15829" x1="19.316" y1="27.6378" x2="1.73213" y2="1.48994" gradientUnits="userSpaceOnUse">
<stop stop-color="#5B40FF"/>
<stop offset="0.15" stop-color="#4357FF"/>
<stop offset="0.37" stop-color="#2575FF"/>
<stop offset="0.58" stop-color="#108AFF"/>
<stop offset="0.8" stop-color="#0496FF"/>
<stop offset="1" stop-color="#009BFF"/>
</linearGradient>
<clipPath id="clip0_196_15829">
<rect width="62" height="29.032" fill="white"/>
</clipPath>
</defs>
</svg>
